PathFileType	4	(X/Y/Z)	0_coords_data.trc
DataRate	CameraRate	NumFrames	NumMarkers	Units	OrigDataRate	OrigDataStartFrame	OrigNumFrames
30.0	30.0	9	21	m	30.0	30	78
Frame#	Time	THUMB_TIP	THUMB_IP	THUMB_MCP	THUMB_CMC	INDEX_TIP	INDEX_DIP	INDEX_PIP	INDEX_MCP	MIDDLE_TIP	MIDDLE_DIP	MIDDLE_PIP	MIDDLE_MCP	RING_TIP	RING_DIP	RING_PIP	RING_MCP	PINKY_TIP	PINKY_DIP	PINKY_PIP	PINKY_MCP	WRIST
X1	Y1	Z1	X2	Y2	Z2	X3	Y3	Z3	X4	Y4	Z4	X5	Y5	Z5	X6	Y6	Z6	X7	Y7	Z7	X8	Y8	Z8	X9	Y9	Z9	X10	Y10	Z10	X11	Y11	Z11	X12	Y12	Z12	X13	Y13	Z13	X14	Y14	Z14	X15	Y15	Z15	X16	Y16	Z16	X17	Y17	Z17	X18	Y18	Z18	X19	Y19	Z19	X20	Y20	Z20	X21	Y21	Z21
28	0.9666666666666625	0.5294867440420539	-0.013721446606542953	-0.14740698699595794	0.5121031056517666	-0.01803333573276289	-0.13301196256114284	0.48467299804395925	-0.02543167181636763	-0.12029686052387495	0.476273016255362	-0.027699344413714466	-0.07654542663945846	0.5682215599378301	0.011393980622357636	-0.15151060370005576	0.5528759477492858	0.018894805540511372	-0.1454898220144265	0.5307735211852325	0.025875948142764837	-0.13575554130409	0.4929896915239418	0.022456479185374856	-0.11640804683643274	0.5850502735340354	0.011440383133334286	-0.138824831875765	0.5703068767834626	0.01823329742720836	-0.13079435445214416	0.5462106592617871	0.028238470853248265	-0.11780673127224839	0.5066028717070337	0.028421102117436425	-0.0971345825731203	0.5866786410221091	0.0022778390001139126	-0.1139705345506492	0.5765361708997175	0.014417166724730701	-0.10532374195392619	0.5587928881226157	0.027907224228724825	-0.09421634604711088	0.5211257467912033	0.02337590978870252	-0.08023870363628044	0.5826453097491671	-0.005801351691368639	-0.09363602909230911	0.5757983657652503	0.004969847055965482	-0.08222986253090314	0.5622678454497072	0.01562268613552964	-0.0702192814235803	0.5276547508464517	0.009953530769089447	-0.061812271823415754	0.462283081001861	-0.023011742144276925	-0.051989820119430985
29	0.9999999999999956	0.5295905893317756	-0.013544755996966362	-0.1472965436529975	0.5121811631299301	-0.017907786312300722	-0.1329481693273128	0.48474958023548453	-0.025362301353522243	-0.12026911315560351	0.4763049707590884	-0.027688166191310648	-0.07652932665009454	0.5681613151469774	0.011183965491313841	-0.15134612560043753	0.5528498910320696	0.018784310575132745	-0.14536322946392544	0.5307590831070874	0.025858232412789395	-0.13566964044559637	0.49294119167632167	0.022541870652662666	-0.11637080819059231	0.5848767305414254	0.01116473636717008	-0.1387473115191602	0.5701904146456885	0.01808562963726046	-0.1307215179911254	0.546155810074171	0.028254983968680758	-0.11774725247924328	0.506538596760186	0.02851200293391254	-0.09709396529570474	0.5864745198058322	0.0020857696015681437	-0.11393703174036962	0.5764246586818373	0.014310770837543285	-0.10530281862226637	0.5587601509743029	0.02789820044907454	-0.09418855287944111	0.5210898173713215	0.023449168009387344	-0.08019309252292833	0.5825493207451649	-0.0058413044054772545	-0.09363222558913253	0.5757448619812372	0.004951557448751309	-0.08222111372719965	0.5622580051577034	0.01564687809633103	-0.07019918259002572	0.5276490046344093	0.009975448725586644	-0.061776865648037915	0.4622830810018608	-0.023011742144276925	-0.051989820119430985
30	1.0333333333333288	0.529636121236696	-0.013423479085346135	-0.14721933106703455	0.5122081758886728	-0.017829596133256964	-0.1329066495046427	0.4847725268557317	-0.025312323731656927	-0.12025303540315291	0.4763396007200025	-0.02767109217403696	-0.07651275684637454	0.5680882250921555	0.010958557792038026	-0.15121206904691992	0.552809214692289	0.018652879894158536	-0.14526654563938113	0.5307345626621286	0.025827120039445983	-0.13560994949554894	0.4928876946979398	0.022604186162514472	-0.11635213610653217	0.5847290959298898	0.010851278769844153	-0.13868155126343984	0.5700978363791512	0.017891059632234252	-0.13065860109729477	0.5461223482643162	0.028216406846868658	-0.11769817191641324	0.506497358412112	0.02857591826857031	-0.09706133951048479	0.586275572321638	0.0018745885380300198	-0.1139184298945427	0.5763097905579921	0.01417482852932539	-0.10529362323027919	0.5587257180995936	0.027865463877583374	-0.09417845887977067	0.5210535022299989	0.023517342832857557	-0.08015637526658798	0.5824701584256817	-0.005893399405690891	-0.09364140502479612	0.5756899051132318	0.004904463998153807	-0.08222062086034748	0.5622512189532903	0.01564919747925142	-0.07018881153195555	0.5276405283216966	0.00999710522652808	-0.06176044287777249	0.4622830810018608	-0.023011742144276925	-0.05198982011943104
31	1.0666666666666622	0.5296795583017281	-0.01334346080110127	-0.14715643267070527	0.5122298770064895	-0.017773461012825953	-0.13287764697938254	0.4847926031180806	-0.025284763518183984	-0.12024450262631514	0.47637070876681153	-0.02763539236699608	-0.07650166047412749	0.5680481218926777	0.010729201244127129	-0.1511001731719535	0.5527960340667885	0.018497883003020466	-0.14518228497763996	0.530739861221304	0.02577564396405907	-0.13556099255904563	0.4928720765031547	0.022647792096950115	-0.11632863656095438	0.5845926587512144	0.010622900128361312	-0.13864407024897057	0.5700094271566494	0.017763550004006978	-0.13062281874981374	0.546087528512047	0.028231494020975023	-0.11767776319585821	0.5064686322331958	0.028627953497600167	-0.09702991104293346	0.5860943513411124	0.0016711714275495781	-0.11390147178833249	0.5762143350070112	0.014043933604146686	-0.10528172507747957	0.5586994598472612	0.02782262365936261	-0.09416611319595586	0.5210271677426277	0.023576855445076483	-0.08011290381682362	0.5823661523722791	-0.005962389775419963	-0.09365073337616497	0.5756290315307211	0.004855082633585472	-0.08222298235303488	0.5622343400541809	0.015641510895039956	-0.07017942703872676	0.5276237664562602	0.01004387855265687	-0.06171431284088991	0.4622830810018609	-0.023011742144276925	-0.05198982011943093
32	1.0999999999999952	0.5296968802720149	-0.013320903607422663	-0.14711999816109533	0.5122233454245938	-0.01776480625049759	-0.13287474248649156	0.4847880055385084	-0.025281092701898045	-0.12024036227551688	0.47638623467538177	-0.02763078302294575	-0.07649360008951406	0.567986627454321	0.0104633942636293	-0.1510164723507454	0.55276557186695	0.018311535260682854	-0.14512358259303532	0.5307323447106308	0.025695546696603455	-0.13553071497212882	0.49284157950419094	0.02267016043036918	-0.11632725059690385	0.5844744883427601	0.010333683307420904	-0.13862524628688444	0.5699400370302099	0.017569527329440504	-0.1306007658468742	0.5460706918184671	0.02817185278635992	-0.1176680706881606	0.5064559260081081	0.028652618956419573	-0.0970140852451487	0.5859261368882698	0.001438694560896181	-0.1139025899581072	0.5761266010258028	0.013880481280821533	-0.10529032892536361	0.5586810668762683	0.02774904038750614	-0.09417743616326868	0.521009303624946	0.023613128922389093	-0.08009008993024652	0.582259352981161	-0.006066732120177831	-0.09366769018514443	0.5755824284523412	0.0047867360263579295	-0.08223873975089308	0.5622283838047515	0.015604555153761135	-0.07017821323349044	0.5276137595145043	0.010071620939497317	-0.06168716646494332	0.462283081001861	-0.023011742144276925	-0.05198982011943104
33	1.1333333333333284	0.5296994623863891	-0.013346396110851866	-0.1471023564664129	0.5122050349186685	-0.01778303969345907	-0.13288050000188695	0.48477267464776086	-0.02529870929970479	-0.12023928485709634	0.47640527599379456	-0.027621006015251637	-0.07648447280481385	0.5679342811226192	0.010170072327435942	-0.1509449603272448	0.5527387152313636	0.018083396962983667	-0.14507349794918756	0.5307346506600923	0.02558872148538105	-0.13550787830606886	0.49282490190929806	0.022687726629972316	-0.11632269463479405	0.5843647529614998	0.010036888390909549	-0.13862486835849236	0.5698760793067775	0.017356009799568195	-0.1305931314646273	0.5460562196812985	0.02808046261525543	-0.11766989853990717	0.5064468764671423	0.028665478627563634	-0.0970082043352074	0.585772703199949	0.0012035216419719053	-0.11392491483592793	0.5760343788694836	0.013696106493704119	-0.10531675806708723	0.5586703172978946	0.02766660104712937	-0.09420394444178143	0.5210011377821294	0.023628709672572024	-0.08008129660731578	0.5821479414245151	-0.006184444718031257	-0.09369675659361654	0.5755334062453881	0.004707492991198214	-0.08226812512251047	0.5622215115930969	0.015566478464144495	-0.07019800025718109	0.5276067713496015	0.010090219088681573	-0.0616707620097765	0.462283081001861	-0.023011742144276925	-0.051989820119430985
34	1.1666666666666616	0.5297070257045258	-0.013385130914402188	-0.14710214008717581	0.5121886635840679	-0.017816062298843693	-0.13290799214927984	0.48476870252946136	-0.025325528412952436	-0.12023622611431412	0.47641279763437394	-0.027630683995991556	-0.07647831127457078	0.5678818185483935	0.009851959929513376	-0.15087615515589298	0.5527167300251628	0.017835181120660848	-0.1450205365296684	0.5307377989670591	0.0254608424051731	-0.13549238285138338	0.49281065096119525	0.022699694207538368	-0.11632095622809835	0.5842557746986176	0.009720507646035492	-0.13862784659117272	0.5698186030571867	0.01713406374297688	-0.13058998238521785	0.5460511502017615	0.02798483018665665	-0.11767570337515071	0.5064503890262075	0.028669090409725095	-0.0970006115189132	0.5856260214989871	0.0009729391363343387	-0.11394418044645543	0.5759385146677019	0.013502657452757583	-0.10533265501219641	0.5586564361082518	0.02757969233037494	-0.0942264932666001	0.5209895513197442	0.02365209696292403	-0.08006666915191274	0.5820471940875591	-0.006293271342650897	-0.09372152473497503	0.5755004056455619	0.004641974300029772	-0.08229524083206224	0.5622235656483126	0.01552772534103708	-0.07021062404208295	0.52760909917475	0.010089332352395841	-0.06165807802047568	0.462283081001861	-0.023011742144276925	-0.051989820119430985
35	1.1999999999999948	0.5297059831077255	-0.013436814942320852	-0.1471259817820616	0.5121715533207197	-0.017862838631085287	-0.1329501542453334	0.4847730091873712	-0.025383208604948804	-0.12023859199558784	0.4763995623958419	-0.027651106210850207	-0.07648208357365616	0.5678173707898526	0.009449451656650454	-0.15081458885224508	0.5526875717337453	0.017517253895760754	-0.14498365860464124	0.5307365570748399	0.02526981020684449	-0.1354936291479959	0.4927895327870476	0.022692743609876165	-0.11633591087424272	0.5841095319671692	0.009324492333246615	-0.13865129274163618	0.5697371677123714	0.016861131044129563	-0.13061175154396631	0.5460299745902442	0.027855354842152513	-0.1177080471398369	0.5064371283602475	0.028661616714225624	-0.0970221971403451	0.5854885752485244	0.0007044321370108797	-0.11399594392837853	0.5758653123029213	0.013288911696434091	-0.10539224213797205	0.5586522167872283	0.027453297700087642	-0.0942900130416538	0.52098960914085	0.023639288757069887	-0.08008782465191766	0.5819459663458302	-0.006409945492417801	-0.09376605932460125	0.5754677063846233	0.004571121688116131	-0.08234466223617004	0.5622198567275813	0.015473046889866948	-0.07024282248513036	0.5276017921534322	0.010102622118433935	-0.06166193710456391	0.4622830810018609	-0.023011742144276925	-0.05198982011943093
36	1.233333333333328	0.5297015275849498	-0.013450372917314102	-0.14713885464779053	0.5121566199815393	-0.017881723394993165	-0.13297766295599567	0.48477580719864377	-0.025410097172103185	-0.12023267650562453	0.47641840475327046	-0.027649021338128965	-0.07647160884331933	0.5677680452726638	0.00907601334809871	-0.15073603516434914	0.5526752682619188	0.017232828519890053	-0.14493306623825902	0.5307500627267534	0.02510258084154382	-0.13547990837241464	0.4927846099442398	0.02269497278557131	-0.11633666119573272	0.583970575589246	0.008859182887655637	-0.1386428599627958	0.569670386518481	0.016530938678796958	-0.13060241497377556	0.5460323789718561	0.027686071913124333	-0.1177098918789693	0.5064427870620231	0.028654537151206583	-0.09702477141774152	0.5853426206474578	0.000430964400581324	-0.1140213873773786	0.5757845568755573	0.013069160485333797	-0.10542374719790903	0.5586381209972979	0.02731366001283475	-0.09432086699123443	0.5209696829479858	0.023662168854462706	-0.08009145304527421	0.5818460971444623	-0.0065292292386506245	-0.09378903140523409	0.5754232723337446	0.004492447918691855	-0.0823754450236387	0.5622147408657588	0.015426538584423555	-0.07025965463370576	0.5275902532600435	0.010125480725829195	-0.06166156794994293	0.462283081001861	-0.023011742144276925	-0.05198982011943104
